<svg width="43" height="43" viewBox="0 0 43 43" fill="none" xmlns="http://www.w3.org/2000/svg">
<path d="M41.2283 20.6275C40.2842 19.3667 38.9427 18.4609 37.4205 18.0564C38.1624 15.8996 38.7107 13.681 39.0587 11.4269C39.1725 10.6076 39.0945 9.773 38.8308 8.9889C38.5672 8.20481 38.1252 7.4926 37.5396 6.90836C36.954 6.32411 36.2407 5.88378 35.456 5.62201C34.6713 5.36025 33.8365 5.2842 33.0174 5.39986C32.7936 5.43007 32.129 5.52779 31.221 5.7037C31.7833 4.45894 32.0496 3.1009 31.9993 1.73599C31.9918 1.50265 31.9385 1.27307 31.8423 1.06035C31.7461 0.847625 31.6089 0.655935 31.4387 0.496219C31.2684 0.336503 31.0683 0.211889 30.8499 0.129492C30.6315 0.0470953 30.3989 0.00852941 30.1656 0.0159963C29.9323 0.0234631 29.7027 0.0768165 29.4899 0.17301C29.2772 0.269204 29.0855 0.406354 28.9258 0.57663C28.7661 0.746906 28.6415 0.946973 28.5591 1.16541C28.4767 1.38384 28.4381 1.61637 28.4456 1.84971C28.4759 2.70805 28.2998 3.56113 27.9321 4.3373C27.6751 3.64372 27.3086 2.99583 26.8464 2.4183C26.061 1.52436 25.0639 0.841613 23.9464 0.432496C22.829 0.02338 21.6268 -0.0990478 20.4498 0.0764093C19.1592 0.180002 17.9256 0.652458 16.8961 1.43748C15.7321 0.561834 14.324 0.0711322 12.8679 0.0337648C11.0203 -0.145306 9.17707 0.415024 7.74171 1.59206C7.0129 2.24092 6.42446 3.03195 6.01256 3.91655C5.60066 4.80115 5.37401 5.76064 5.34652 6.73605C5.29776 8.29794 5.7525 9.83411 6.64362 11.1178C5.55956 12.0472 4.71806 13.2266 4.19178 14.5541C3.66551 15.8815 3.47028 17.3171 3.62297 18.7369C2.21775 19.52 1.12266 20.7601 0.519534 22.2515C-0.0835908 23.7428 -0.158459 25.3956 0.307362 26.9353C1.52452 31.1705 3.78995 35.0303 6.89415 38.1579C9.87217 41.0617 13.8721 42.6788 18.0315 42.6605H24.6449C28.8038 42.6791 32.8033 41.0619 35.7804 38.1579C38.8858 35.0309 41.1519 31.1709 42.369 26.9353C42.6862 25.868 42.7483 24.7411 42.5501 23.6455C42.352 22.5498 41.8992 21.5161 41.2283 20.6275ZM33.5114 8.91803C33.7864 8.88092 34.0662 8.9079 34.329 8.99683C34.5919 9.08577 34.8306 9.23427 35.0265 9.43073C35.2225 9.62719 35.3703 9.86629 35.4586 10.1293C35.5468 10.3924 35.5731 10.6723 35.5352 10.9472C35.1626 13.2805 34.5585 15.571 33.7317 17.7845H29.1812L31.4787 15.487C31.8024 15.1519 31.9815 14.7031 31.9774 14.2372C31.9734 13.7713 31.7865 13.3257 31.457 12.9962C31.1276 12.6668 30.6819 12.4799 30.2161 12.4759C29.7502 12.4718 29.3013 12.6509 28.9662 12.9746L24.1563 17.7845H21.4039C21.2742 16.85 21.3633 15.8981 21.6642 15.0039C21.9652 14.1096 22.4697 13.2976 23.1381 12.6316C23.8969 11.8658 26.8056 9.78869 33.5114 8.91803ZM8.90022 6.8551C8.9109 6.36593 9.02119 5.88407 9.22435 5.43895C9.42751 4.99383 9.71927 4.5948 10.0818 4.26623C10.8149 3.72437 11.7256 3.4794 12.6316 3.58036C13.0692 3.56237 13.5057 3.63713 13.9124 3.79974C14.319 3.96234 14.6867 4.20912 14.9913 4.52387C15.231 4.79176 15.5246 5.00603 15.8528 5.15269C16.1811 5.29935 16.5366 5.3751 16.8961 5.37498V5.37498C17.2547 5.37321 17.609 5.29605 17.9359 5.1485C18.2629 5.00096 18.5551 4.78633 18.7937 4.51854C19.0587 4.23821 19.3768 4.01329 19.7294 3.85681C20.082 3.70034 20.4621 3.61543 20.8478 3.60701C21.4351 3.50239 22.0392 3.54502 22.6061 3.73107C23.1729 3.91712 23.6848 4.24079 24.0959 4.67313C24.6353 5.36369 24.9168 6.22084 24.8919 7.09675C24.8919 7.21225 24.8919 7.46456 24.8919 7.46456C22.5331 8.31394 20.5182 9.91379 19.1562 12.0186C18.0342 10.6904 16.5414 9.72721 14.8687 9.2524C13.1961 8.77758 11.4198 8.81273 9.76732 9.35336C9.17767 8.65741 8.86852 7.76671 8.90022 6.8551V6.8551ZM7.12337 17.7845C7.12337 16.3708 7.68498 15.0149 8.68465 14.0152C9.68433 13.0156 11.0402 12.454 12.4539 12.454C13.8677 12.454 15.2235 13.0156 16.2232 14.0152C17.2229 15.0149 17.7845 16.3708 17.7845 17.7845H7.12337ZM38.9575 25.9385C37.8958 29.5938 35.9419 32.9277 33.2715 35.6401C30.9626 37.8834 27.8641 39.1286 24.6449 39.1067H18.0315C14.8114 39.1278 11.712 37.8828 9.40129 35.6401C6.73084 32.9278 4.77689 29.5938 3.71537 25.9385C3.55607 25.4005 3.52518 24.8327 3.62516 24.2806C3.72514 23.7286 3.95322 23.2076 4.29107 22.7597C4.61888 22.3175 5.04596 21.9585 5.53791 21.7116C6.02987 21.4647 6.57294 21.3368 7.12337 21.3382H35.553C36.1052 21.3351 36.6504 21.4622 37.1444 21.7092C37.6383 21.9562 38.0671 22.3161 38.396 22.7597C38.7314 23.2088 38.9569 23.7303 39.0544 24.2824C39.152 24.8344 39.1187 25.4016 38.9575 25.9385V25.9385Z" fill="#EF4444"/>
</svg>
